<?xml version="1.0" standalone="no"?>
<!DOCTYPE svg PUBLIC "-//W3C//DTD SVG 20010904//EN"
 "http://www.w3.org/TR/2001/REC-SVG-20010904/DTD/svg10.dtd">
<svg version="1.0" xmlns="http://www.w3.org/2000/svg"
 width="512.000000pt" height="512.000000pt" viewBox="0 0 512.000000 512.000000"
 preserveAspectRatio="xMidYMid meet">
<metadata>
Created by potrace 1.14, written by Peter Selinger 2001-2017
</metadata>
<g transform="translate(0.000000,512.000000) scale(0.100000,-0.100000)"
fill="#000000" stroke="none">
<path d="M0 2560 l0 -2560 2560 0 2560 0 0 2560 0 2560 -2560 0 -2560 0 0
-2560z m3129 1716 c15 -15 25 -39 28 -67 3 -24 -5 -231 -16 -459 -27 -535 -43
-1065 -39 -1305 l3 -190 223 1 222 1 0 -44 0 -43 -221 0 -221 0 6 -77 c13
-147 38 -328 58 -422 71 -334 230 -571 448 -668 129 -58 313 -83 464 -63 48 7
89 10 92 8 2 -3 5 -22 7 -44 l2 -39 -110 -29 c-99 -27 -125 -29 -265 -29 -167
0 -246 13 -366 58 -165 62 -300 188 -388 364 -91 179 -156 534 -156 852 l0 89
-437 0 -438 -1 -132 -267 c-73 -147 -162 -314 -198 -372 -150 -237 -310 -418
-454 -514 -67 -45 -236 -126 -261 -126 -6 0 -18 16 -27 36 -17 34 -17 36 0 45
43 25 180 142 262 224 222 224 431 514 612 847 34 65 63 120 63 123 0 3 -110
5 -245 5 l-245 0 0 40 0 40 263 0 264 0 397 798 c388 777 578 1148 619 1206
42 59 137 70 186 22z"/>
<path d="M2987 4158 c-65 -100 -151 -264 -288 -543 -166 -338 -639 -1347 -639
-1361 0 -2 189 -4 420 -4 l420 0 0 103 c0 216 29 578 86 1077 81 710 85 772
52 778 -12 2 -28 -14 -51 -50z"/>
</g>
</svg>
